<svg xmlns="http://www.w3.org/2000/svg" version="1.1" xmlns:xlink="http://www.w3.org/1999/xlink" width="512" height="512" x="0" y="0" viewBox="0 0 512 512" style="enable-background:new 0 0 512 512" xml:space="preserve" class=""><g><path d="M512 243.6V395c0 9.7-4.9 14.6-14.5 14.7h-22.3c-9.3 0-14.4-5.2-14.4-14.6V358.7H51.3v37.4c-.1 8.1-5.2 13.4-13.1 13.5-8.3.1-16.6.1-24.9 0-7.9-.1-13-5.3-13.3-13.2V116c.2-8.2 5.3-13.5 13.5-13.6 7.9-.1 15.9-.1 23.8 0 8.9.1 14 5.2 14 14.2v164.7h179.1V169.2c0-10.9 4.8-15.6 15.5-15.6h175.5c47.2.1 84.8 33.7 90.1 80.5.4 3.1.5 6.3.5 9.5z" fill="currentColor" opacity="1" data-original="#000000" class=""></path><path d="M140.9 128c35.3 0 64 28.7 63.9 64s-28.7 64-64 63.9c-35.3 0-63.9-28.7-63.9-64s28.6-63.9 64-63.9z" fill="currentColor" opacity="1" data-original="#000000" class=""></path></g></svg>