<svg width="20" height="11" viewBox="0 0 20 11" fill="none" xmlns="http://www.w3.org/2000/svg">
<path d="M5.23934 5.88639C6.32197 5.88639 7.19963 5.00874 7.19963 3.92611C7.19963 2.84347 6.32197 1.96582 5.23934 1.96582C4.1567 1.96582 3.27905 2.84347 3.27905 3.92611C3.27905 5.00874 4.1567 5.88639 5.23934 5.88639Z" fill="#0A2D89"/>
<path d="M14.2939 1.74204H8.13298C8.02096 1.74204 7.90894 1.83538 7.90894 1.96606V6.59608H2.55083V0.640539C2.55083 0.528523 2.45749 0.416504 2.3268 0.416504H1.05728C0.945259 0.416504 0.833252 0.509853 0.833252 0.640539V10.1619C0.833252 10.2739 0.92659 10.386 1.05728 10.386H2.3268C2.43882 10.386 2.55083 10.2926 2.55083 10.1619V8.29499H17.449V10.1619C17.449 10.2739 17.5423 10.386 17.673 10.386H18.9426C19.0546 10.386 19.1666 10.2926 19.1666 10.1619V6.59608C19.1479 3.92636 16.9823 1.74204 14.2939 1.74204Z" fill="#0A2D89"/>
</svg>
