<svg width="60" height="60" viewBox="0 0 60 60" fill="none" xmlns="http://www.w3.org/2000/svg">
<path d="M55.094 32.3235L51.7472 30.3009L50.8568 24.1876C50.7259 22.6155 49.4121 21.3785 47.8089 21.3785H42.919V18.15H36.461V21.3785H31.3208C29.7186 21.3785 28.4038 22.6155 28.2729 24.1876L27.3935 30.2949L24.0361 32.3235L24.0442 42.1239H25.7627L25.7597 45.3313C25.7597 46.7103 26.8749 47.8269 28.2523 47.8269C29.6298 47.8269 30.7449 46.7103 30.7449 45.3313L30.7424 42.1239H48.3918L48.3883 45.3313C48.3883 46.7103 49.5044 47.8269 50.8789 47.8269C52.2568 47.8269 53.373 46.7103 53.373 45.3313L53.3694 42.1239H55.0875L55.094 32.3235ZM28.1891 37.7973C27.0359 37.7973 26.1018 36.8608 26.1018 35.706C26.1018 34.5518 27.0359 33.6152 28.1891 33.6152C29.3414 33.6152 30.2774 34.5518 30.2774 35.706C30.2769 36.8608 29.3409 37.7973 28.1891 37.7973ZM32.1731 38.5969L32.1766 34.8387C32.1766 34.3185 32.599 33.8946 33.1186 33.8946H45.988C46.5081 33.8946 46.93 34.3185 46.93 34.8387L46.933 38.5969H32.1731ZM30.0848 29.9328L30.4575 24.3055C30.5262 23.4888 31.2089 23.5029 32.0406 23.5029H47.0951C47.9273 23.5029 48.609 23.4888 48.6802 24.3055L49.0519 29.9328H30.0848ZM50.9411 37.7973C49.7888 37.7973 48.8538 36.8608 48.8538 35.706C48.8538 34.5518 49.7888 33.6152 50.9411 33.6152C52.0943 33.6152 53.0283 34.5518 53.0283 35.706C53.0283 36.8608 52.0943 37.7973 50.9411 37.7973Z" fill="black"/>
<path d="M13.0091 17.7838C14.6062 17.7838 15.901 16.4891 15.901 14.8919C15.901 13.2948 14.6062 12 13.0091 12C11.4119 12 10.1172 13.2948 10.1172 14.8919C10.1172 16.4891 11.4119 17.7838 13.0091 17.7838Z" fill="black"/>
<path d="M9.61501 18.5779L16.2646 18.5739L16.2656 18.5674L26.0459 15.5862C28.0991 15.0218 28.7908 17.5711 26.9769 18.154L17.1891 21.4688L17.1921 46.2909C17.1921 47.234 16.4276 48 15.4831 48C14.538 48 13.774 47.234 13.774 46.2909L13.7715 33.1663H12.2451L12.2491 46.2909C12.2491 47.234 11.4836 48 10.54 48C9.59544 48 8.82996 47.234 8.82996 46.2909L8.82194 22.9662L7.59946 22.9406V32.0522C7.59946 33.8856 4.99449 33.8856 5.00001 32.0522V22.7469C5.00101 19.9188 6.78782 18.5779 9.61501 18.5779Z" fill="black"/>
</svg>
