<svg xmlns="http://www.w3.org/2000/svg" version="1.1" xmlns:xlink="http://www.w3.org/1999/xlink" width="512" height="512" x="0" y="0" viewBox="0 0 1024 1024" style="enable-background:new 0 0 512 512" xml:space="preserve" class=""><g><path d="M922.67 480.75c-11.98-21.63-29.41-39.99-50.38-53.1l-39.53-24.72h53.63c15.73 0 28.52-12.79 28.52-28.52v-26.64c0-8.39-6.82-15.22-15.21-15.22h-30.09c-24.88 0-46.55 13.97-57.6 34.47l-33.49-66.56A145.422 145.422 0 0 0 724.91 242a145.342 145.342 0 0 0-76.31-21.63H375.4a145.422 145.422 0 0 0-129.93 80.09l-33.96 67.52c-11.19-20.02-32.6-33.59-57.12-33.59H124.3c-8.39 0-15.21 6.82-15.21 15.21v26.64c0 15.73 12.79 28.52 28.52 28.52h50.7l-36.61 22.89c-20.97 13.11-38.39 31.47-50.38 53.1S83 526.89 83 551.62v108.34c0 13.65 2.43 27.07 7.22 39.87l2.85 7.61c4.14 11.05 11.61 20.21 21.6 26.49 1.57.99 3.18 1.89 4.83 2.7v35.74c0 14.76 12 26.76 26.76 26.76h93.48c14.76 0 26.76-12 26.76-26.76v-59.62l22.94-16.6 445.07 1.98 22.99 16.64v57.6c0 14.76 12 26.76 26.76 26.76h93.48c14.76 0 26.76-12 26.76-26.76v-35.73c1.65-.82 3.26-1.72 4.83-2.71 9.86-6.2 17.53-15.61 21.59-26.49l2.85-7.61c4.8-12.79 7.23-26.2 7.23-39.87V551.62c0-24.73-6.34-49.24-18.33-70.87zM274.13 631.82h-94.11c-17.73 0-32.16-14.43-32.16-32.16v-30.77c0-9.26 7.54-16.8 16.8-16.8h34.74c41.21 0 74.73 33.52 74.73 74.73zm404.67-10H338.37v-30H678.8zm19.3-116.09-13.75-14.52a435.71 435.71 0 0 0 62.42-73.84c1.12-1.66 2.22-3.33 3.31-5 2.15-3.3 4.25-6.64 6.31-10 2.02-3.3 4.01-6.64 5.94-10 .96-1.66 1.91-3.32 2.84-5H258.83c.93 1.68 1.88 3.34 2.84 5 1.93 3.36 3.92 6.7 5.94 10a431.023 431.023 0 0 0 9.61 15 435.308 435.308 0 0 0 62.43 73.84l-13.75 14.52c-27.88-26.39-52.18-56.01-72.52-88.36-1.04-1.66-2.08-3.32-3.1-5-2.02-3.3-4-6.64-5.93-10a392.44 392.44 0 0 1-5.61-10c-.89-1.64-1.78-3.29-2.65-4.94l.11-.06h-.86l36.93-73.43c19.72-39.21 59.24-63.57 103.13-63.57h273.2c43.89 0 83.4 24.36 103.12 63.57l36.94 73.43h-.87l.11.06c-.87 1.65-1.76 3.3-2.65 4.94a392.44 392.44 0 0 1-5.61 10c-1.93 3.36-3.91 6.7-5.93 10a320.15 320.15 0 0 1-3.1 5c-20.34 32.35-44.64 61.97-72.51 88.36zm178.03 93.93c0 17.73-14.43 32.16-32.16 32.16h-94.11v-5c0-41.21 33.52-74.73 74.73-74.73h34.74c9.27 0 16.8 7.54 16.8 16.8z" fill="currentColor" opacity="1" data-original="#000000" class=""></path></g></svg>