<svg width="17" height="15" viewBox="0 0 17 15" fill="none" xmlns="http://www.w3.org/2000/svg">
<path d="M3.24487 12.6978V13.5571C3.24487 13.8006 3.16252 14.0047 2.9978 14.1694C2.83309 14.3341 2.62899 14.4165 2.3855 14.4165H1.52612C1.28263 14.4165 1.07853 14.3341 0.913818 14.1694C0.749105 14.0047 0.666748 13.8006 0.666748 13.5571V6.68213L2.47144 1.52588C2.55737 1.26807 2.71134 1.06038 2.93335 0.902832C3.15535 0.74528 3.40243 0.666504 3.67456 0.666504H13.1277C13.3998 0.666504 13.6469 0.74528 13.8689 0.902832C14.0909 1.06038 14.2449 1.26807 14.3308 1.52588L16.1355 6.68213V13.5571C16.1355 13.8006 16.0531 14.0047 15.8884 14.1694C15.7237 14.3341 15.5196 14.4165 15.2761 14.4165H14.4167C14.1733 14.4165 13.9692 14.3341 13.8044 14.1694C13.6397 14.0047 13.5574 13.8006 13.5574 13.5571V12.6978H3.24487ZM3.073 4.96338H13.7292L12.8269 2.38525H3.97534L3.073 4.96338ZM4.53394 10.1196C4.89201 10.1196 5.19637 9.9943 5.44702 9.74365C5.69767 9.493 5.823 9.18864 5.823 8.83057C5.823 8.47249 5.69767 8.16813 5.44702 7.91748C5.19637 7.66683 4.89201 7.5415 4.53394 7.5415C4.17586 7.5415 3.8715 7.66683 3.62085 7.91748C3.3702 8.16813 3.24487 8.47249 3.24487 8.83057C3.24487 9.18864 3.3702 9.493 3.62085 9.74365C3.8715 9.9943 4.17586 10.1196 4.53394 10.1196ZM12.2683 10.1196C12.6264 10.1196 12.9307 9.9943 13.1814 9.74365C13.432 9.493 13.5574 9.18864 13.5574 8.83057C13.5574 8.47249 13.432 8.16813 13.1814 7.91748C12.9307 7.66683 12.6264 7.5415 12.2683 7.5415C11.9102 7.5415 11.6059 7.66683 11.3552 7.91748C11.1046 8.16813 10.9792 8.47249 10.9792 8.83057C10.9792 9.18864 11.1046 9.493 11.3552 9.74365C11.6059 9.9943 11.9102 10.1196 12.2683 10.1196Z" fill="#0A2D89"/>
</svg>
