<svg xmlns="http://www.w3.org/2000/svg" version="1.1" xmlns:xlink="http://www.w3.org/1999/xlink" width="512" height="512" x="0" y="0" viewBox="0 0 512 512" style="enable-background:new 0 0 512 512" xml:space="preserve" class=""><g><path d="M256 183.586c-33.804 0-61.307 32.484-61.307 72.414s27.502 72.414 61.307 72.414S317.307 295.93 317.307 256 289.804 183.586 256 183.586zm0 67.08c12.086 0 21.919 9.833 21.919 21.919 0 10.239-7.084 18.79-16.586 21.189v2.811a5.334 5.334 0 0 1-10.668 0v-2.811c-9.502-2.399-16.586-10.95-16.586-21.189a5.334 5.334 0 0 1 10.668 0c0 6.206 5.047 11.255 11.253 11.255s11.253-5.049 11.253-11.255-5.047-11.253-11.253-11.253c-12.123 0-21.919-9.791-21.919-21.919 0-10.239 7.084-18.79 16.586-21.189v-2.811a5.334 5.334 0 0 1 10.668 0v2.811c9.502 2.399 16.586 10.95 16.586 21.189a5.334 5.334 0 0 1-10.668 0c0-6.206-5.047-11.255-11.253-11.255s-11.253 5.049-11.253 11.255A11.232 11.232 0 0 0 256 250.666z" fill="currentColor" opacity="1" data-original="#000000" class=""></path><circle cx="114.383" cy="256" r="25.87" fill="currentColor" opacity="1" data-original="#000000" class=""></circle><circle cx="397.617" cy="256" r="25.87" fill="currentColor" opacity="1" data-original="#000000" class=""></circle><path d="M490.613 101.441H21.387C9.6 101.441 0 111.041 0 122.828v266.345c0 11.786 9.6 21.387 21.387 21.387h469.226c11.787 0 21.387-9.6 21.387-21.387V122.827c-.001-11.786-9.601-21.386-21.387-21.386zm-13.337 217.085a5.334 5.334 0 0 1-5.334 5.334c-24.276 0-44.026 19.75-44.026 44.023a5.334 5.334 0 0 1-5.334 5.334H89.417a5.334 5.334 0 0 1-5.334-5.334c0-24.273-19.75-44.023-44.026-44.023a5.334 5.334 0 0 1-5.334-5.334V193.474a5.334 5.334 0 0 1 5.334-5.334c24.276 0 44.026-19.75 44.026-44.023a5.334 5.334 0 0 1 5.334-5.334h333.166a5.334 5.334 0 0 1 5.334 5.334c0 24.273 19.75 44.023 44.026 44.023a5.334 5.334 0 0 1 5.334 5.334v125.051h-.001z" fill="currentColor" opacity="1" data-original="#000000" class=""></path><path d="M417.508 149.45H94.492c-2.518 25.909-23.19 46.58-49.102 49.099v114.902c25.911 2.518 46.584 23.19 49.102 49.099h323.015c2.518-25.909 23.19-46.58 49.102-49.099V198.549c-25.912-2.518-46.583-23.189-49.101-49.099zM114.383 292.536c-20.145 0-36.536-16.391-36.536-36.536s16.391-36.536 36.536-36.536 36.536 16.391 36.536 36.536-16.39 36.536-36.536 36.536zM256 339.08c-39.688 0-71.974-37.27-71.974-83.08s32.286-83.08 71.974-83.08 71.974 37.27 71.974 83.08-32.286 83.08-71.974 83.08zm141.617-46.544c-20.145 0-36.536-16.391-36.536-36.536s16.391-36.536 36.536-36.536 36.536 16.391 36.536 36.536-16.39 36.536-36.536 36.536z" fill="currentColor" opacity="1" data-original="#000000" class=""></path></g></svg>