<svg width="60" height="60" viewBox="0 0 60 60" fill="none" xmlns="http://www.w3.org/2000/svg">
<path d="M39.465 12.8651H20.6106C19.5107 11.9453 19.1184 10.4399 19.6322 9.10995C20.2531 7.50247 21.6199 6.2858 23.3052 5.85129C27.6929 4.72031 32.2952 4.71636 36.6834 5.83879C38.3993 6.27768 39.8062 7.50557 40.4639 9.15332L40.4722 9.1764C40.942 10.4778 40.5557 11.9305 39.4992 12.8358L39.465 12.8651Z" fill="black"/>
<path d="M30.3831 25.5399H29.3865C24.9609 25.5399 21.3604 21.9415 21.3604 17.5184V11.7094C21.3604 11.0952 21.8585 10.5972 22.4732 10.5972H37.2966C37.9111 10.5972 38.4094 11.0952 38.4094 11.7094V17.5184C38.4094 21.9415 34.8089 25.5399 30.3831 25.5399ZM23.586 12.8216V17.5185C23.586 20.7151 26.1881 23.3156 29.3865 23.3156H30.3831C33.5816 23.3156 36.1837 20.715 36.1837 17.5185V12.8216H23.586Z" fill="black"/>
<path d="M30.0391 55C24.8044 55 20.5457 50.8401 20.5457 45.7267C20.5457 40.6134 24.8044 36.4534 30.0391 36.4534C35.2739 36.4534 39.5326 40.6135 39.5326 45.7267C39.5326 50.84 35.2739 55 30.0391 55ZM30.0391 39.7313C26.613 39.7313 23.8256 42.4208 23.8256 45.7267C23.8256 49.0326 26.613 51.722 30.0391 51.722C33.4653 51.722 36.2527 49.0325 36.2527 45.7267C36.2527 42.4208 33.4653 39.7313 30.0391 39.7313Z" fill="black"/>
<path d="M24.4632 51.4001L22.6472 48.6705L28.3988 44.8484V38.0924H31.6787V45.7268C31.6787 46.2755 31.4041 46.7878 30.9468 47.0917L24.4632 51.4001Z" fill="black"/>
<path d="M30.8517 44.3027L29.2283 47.1509L36.004 51.013L37.6274 48.1648L30.8517 44.3027Z" fill="black"/>
<path d="M47.2451 35.0402L34.2964 27.7307L30.1192 31.3689L25.8963 27.8786L12.8505 35.0383C12.326 35.3263 12 35.8768 12 36.475V45.2282H18.0385C18.2292 38.9302 23.5288 33.8816 30.0392 33.8816C36.5496 33.8816 41.8494 38.9302 42.04 45.2282H48.0784V36.4673C48.0784 35.8762 47.76 35.3309 47.2451 35.0402Z" fill="black"/>
</svg>
