<svg width="20" height="20" viewBox="0 0 20 20" fill="none" xmlns="http://www.w3.org/2000/svg">
<path d="M9.99961 4.00635C6.06838 4.00635 2.40585 6.1251 0.437119 9.53137C0.268356 9.81884 0.268356 10.1814 0.437119 10.4689C2.40585 13.8751 6.06838 15.9938 9.99961 15.9938C13.9309 15.9938 17.5934 13.8751 19.5621 10.4689C19.7309 10.1814 19.7309 9.81884 19.5621 9.53137C17.5934 6.12511 13.9309 4.00635 9.99961 4.00635ZM9.99961 13.4689C8.08711 13.4689 6.53087 11.9126 6.53087 10.0001C6.53087 8.08762 8.08711 6.53137 9.99961 6.53137C11.9121 6.53137 13.4684 8.08762 13.4684 10.0001C13.4684 11.9126 11.9121 13.4689 9.99961 13.4689Z" fill="#1D1D1D"/>
<path d="M10 11.5937C10.8802 11.5937 11.5937 10.8802 11.5937 10C11.5937 9.1198 10.8802 8.40625 10 8.40625C9.1198 8.40625 8.40625 9.1198 8.40625 10C8.40625 10.8802 9.1198 11.5937 10 11.5937Z" fill="#1D1D1D"/>
</svg>
