<svg width="32" height="32" viewBox="0 0 32 32" fill="none" xmlns="http://www.w3.org/2000/svg">
<rect x="32" y="32" width="32" height="32" rx="6" transform="rotate(180 32 32)" fill="white"/>
<path d="M16.0001 10.0062C12.0689 10.0062 8.40634 12.125 6.43761 15.5313C6.26884 15.8187 6.26884 16.1812 6.43761 16.4688C8.40634 19.875 12.0689 21.9937 16.0001 21.9937C19.9313 21.9937 23.5939 19.875 25.5626 16.4688C25.7314 16.1812 25.7314 15.8187 25.5626 15.5313C23.5939 12.125 19.9313 10.0062 16.0001 10.0062ZM16.0001 19.4687C14.0876 19.4687 12.5314 17.9125 12.5314 16C12.5314 14.0875 14.0876 12.5313 16.0001 12.5313C17.9126 12.5313 19.4688 14.0875 19.4688 16C19.4688 17.9125 17.9126 19.4687 16.0001 19.4687Z" fill="#1D1D1D"/>
<path d="M16 17.5937C16.8802 17.5937 17.5937 16.8802 17.5937 16C17.5937 15.1198 16.8802 14.4062 16 14.4062C15.1198 14.4062 14.4062 15.1198 14.4062 16C14.4062 16.8802 15.1198 17.5937 16 17.5937Z" fill="#1D1D1D"/>
</svg>
