<svg width="20" height="12" viewBox="0 0 20 12" fill="none" xmlns="http://www.w3.org/2000/svg">
<path d="M10.0001 0.00623322C6.06886 0.00623322 2.40634 2.12499 0.437607 5.53125C0.268845 5.81873 0.268845 6.18124 0.437607 6.46875C2.40634 9.87501 6.06886 11.9937 10.0001 11.9937C13.9313 11.9937 17.5939 9.87501 19.5626 6.46875C19.7314 6.18124 19.7314 5.81873 19.5626 5.53125C17.5939 2.125 13.9313 0.00623322 10.0001 0.00623322ZM10.0001 9.46875C8.0876 9.46875 6.53136 7.9125 6.53136 6C6.53136 4.0875 8.0876 2.53126 10.0001 2.53126C11.9126 2.53126 13.4688 4.0875 13.4688 6C13.4688 7.9125 11.9126 9.46875 10.0001 9.46875Z" fill="#1D1D1D"/>
</svg>
