<svg width="12" height="16" viewBox="0 0 12 16" fill="none" xmlns="http://www.w3.org/2000/svg">
<path d="M7.83301 15.5V12.1667C7.58301 11.2778 7.14204 10.6215 6.51009 10.1979C5.87815 9.77431 5.18717 9.5625 4.43717 9.5625C4.2844 9.5625 4.13162 9.57292 3.97884 9.59375C3.82606 9.61458 3.67329 9.63889 3.52051 9.66667L4.83301 11L3.66634 12.1667L0.333008 8.83333L3.66634 5.5L4.83301 6.66667L3.52051 8C3.64551 7.97222 3.77745 7.95139 3.91634 7.9375C4.05523 7.92361 4.20106 7.91667 4.35384 7.91667C4.96495 7.91667 5.57606 8.01042 6.18717 8.19792C6.79829 8.38542 7.3469 8.69444 7.83301 9.125V3.6875L6.49967 5.02083L5.33301 3.83333L8.66634 0.5L11.9997 3.83333L10.833 5L9.49967 3.6875V15.5H7.83301Z" fill="currentColor"/>
</svg>
