<svg xmlns="http://www.w3.org/2000/svg" version="1.1" xmlns:xlink="http://www.w3.org/1999/xlink" width="512" height="512" x="0" y="0" viewBox="0 0 64 64" style="enable-background:new 0 0 512 512" xml:space="preserve" class=""><g><g fill="#000" fill-rule="evenodd" clip-rule="evenodd"><path d="M4 10a3 3 0 0 1 3-3h50a3 3 0 0 1 3 3v9H4zm7 1a2 2 0 1 0 0 4 2 2 0 0 0 0-4zm6 0a2 2 0 1 0 0 4 2 2 0 0 0 0-4zM4 21v33a3 3 0 0 0 3 3h50a3 3 0 0 0 3-3V21zm9 9a1 1 0 0 0-1 1v8a1 1 0 0 0 1 1h10a1 1 0 0 0 1-1v-8a1 1 0 0 0-1-1zm38 2a1 1 0 1 0 0-2H30a1 1 0 1 0 0 2zm0 8a1 1 0 1 0 0-2H30a1 1 0 1 0 0 2zm1 7a1 1 0 0 1-1 1H13a1 1 0 1 1 0-2h38a1 1 0 0 1 1 1z" fill="#ffffff" opacity="1" data-original="#000000" class=""></path></g></g></svg>