<svg width="60" height="60" viewBox="0 0 60 60" fill="none" xmlns="http://www.w3.org/2000/svg">
<path d="M43.9068 47.5411C43.7282 47.1288 43.3232 46.8618 42.874 46.8637H14.3771C13.9297 46.8637 13.5229 47.1288 13.3461 47.5411L12.0943 50.4242C11.9415 50.7739 11.9764 51.1734 12.1845 51.4919C12.3925 51.8086 12.7478 52 13.1271 52H44.1242C44.5053 52 44.8588 51.8086 45.0668 51.4919C45.2748 51.1753 45.3098 50.774 45.1588 50.426L43.9068 47.5411Z" fill="black"/>
<path d="M44.0151 19.6998V28.3301H46.4839V28.332C46.7288 28.332 46.9626 28.2344 47.1356 28.0614C47.3068 27.8883 47.4044 27.6545 47.4044 27.4115V23.5454C47.3989 21.5939 45.95 19.9502 44.0151 19.6998Z" fill="black"/>
<path d="M35.3403 8H21.9102C19.9035 8.00184 17.9797 8.80083 16.5601 10.2202C15.1407 11.6396 14.3417 13.5635 14.3398 15.5704V45.7625H42.9103V15.5704C42.9084 13.5637 42.1094 11.6399 40.69 10.2202C39.2706 8.80083 37.3471 8.00184 35.3403 8ZM28.6262 41.8617C26.5569 41.8617 24.8816 40.1864 24.8816 38.1189C24.8816 36.6056 26.8883 34.0245 27.9635 32.7523V32.7504C28.1273 32.5571 28.3703 32.4448 28.6244 32.4448C28.8803 32.4448 29.1233 32.5571 29.2871 32.7504C30.3622 34.0244 32.3689 36.6018 32.3689 38.1171V38.1189C32.3708 39.1112 31.975 40.063 31.2736 40.7663C30.5703 41.4677 29.6185 41.8617 28.6262 41.8617ZM38.144 21.6954C38.144 23.2105 36.916 24.4366 35.4009 24.4366H21.8493C20.3342 24.4366 19.108 23.2105 19.108 21.6954V17.7483C19.1062 17.0211 19.3952 16.3234 19.9107 15.8097C20.4243 15.2961 21.1221 15.007 21.8493 15.007H35.4009C36.1281 15.007 36.8258 15.2961 37.3413 15.8097C37.855 16.3233 38.144 17.0211 38.144 17.7483V21.6954Z" fill="black"/>
<path d="M43.4627 41.3403C43.1571 41.3568 42.8975 41.123 42.881 40.8174C42.8644 40.5136 43.0982 40.2522 43.4038 40.2356C44.9816 40.0681 46.1764 38.7352 46.1727 37.1501V29.3553C46.1727 29.2173 46.1635 29.0792 46.1451 28.943C46.1138 28.6447 46.3255 28.3759 46.6219 28.3354C46.9183 28.2968 47.1926 28.4993 47.2404 28.7957C47.2644 28.9816 47.2773 29.1675 47.2773 29.3553V37.1539C47.2809 39.3041 45.6609 41.112 43.5216 41.3403L43.4627 41.3403Z" fill="black"/>
</svg>
