<svg xmlns="http://www.w3.org/2000/svg" version="1.1" xmlns:xlink="http://www.w3.org/1999/xlink" width="512" height="512" x="0" y="0" viewBox="0 0 24 24" style="enable-background:new 0 0 512 512" xml:space="preserve" class=""><g><path d="M9 1a1 1 0 0 0-1 1v2H6.34c-.607 0-1.156.362-1.395.92L3.395 8.54A.758.758 0 0 1 2.697 9H1a1 1 0 0 0-1 1v1a1 1 0 0 0 .553.895l1 .5a.809.809 0 0 1 .447.722V21c0 1.09.91 2 2 2s2-.91 2-2v-.5a.5.5 0 0 1 .5-.5h11a.5.5 0 0 1 .5.5v.5c0 1.09.91 2 2 2 1.09 0 2-.91 2-2v-7.883c0-.306.173-.586.447-.722l1-.5A1 1 0 0 0 24 11v-1a1 1 0 0 0-1-1h-1.697a.758.758 0 0 1-.698-.459l-1.55-3.621A1.516 1.516 0 0 0 17.66 4H16V2a1 1 0 0 0-1-1zM7.154 6h9.686c.303 0 .577.18.697.459l1.748 4.082a.33.33 0 0 1-.303.459H5.018a.33.33 0 0 1-.303-.459l1.748-4.082A.758.758 0 0 1 7.154 6zM4.5 14h3c.277 0 .5.223.5.5v1c0 .277-.223.5-.5.5h-3a.499.499 0 0 1-.5-.5v-1c0-.277.223-.5.5-.5zm12 0h3c.277 0 .5.223.5.5v1c0 .277-.223.5-.5.5h-3a.499.499 0 0 1-.5-.5v-1c0-.277.223-.5.5-.5z" paint-order="fill markers stroke" fill="#ffffff" opacity="1" data-original="#000000" class=""></path></g></svg>