<svg xmlns="http://www.w3.org/2000/svg" version="1.1" xmlns:xlink="http://www.w3.org/1999/xlink" width="512" height="512" x="0" y="0" viewBox="0 0 32 32" style="enable-background:new 0 0 512 512" xml:space="preserve" class=""><g><path d="M24.972 12.288C24.608 7.657 20.723 4 16 4a8.937 8.937 0 0 0-8.627 6.451A8.003 8.003 0 0 0 2 18c0 4.411 3.589 8 8 8h13c3.86 0 7-3.14 7-7a6.97 6.97 0 0 0-5.028-6.712zm-5.265 7.005a.999.999 0 1 1-1.414 1.414L16 18.414l-2.293 2.293a.999.999 0 1 1-1.414-1.414L14.586 17l-2.293-2.293a.999.999 0 1 1 1.414-1.414L16 15.586l2.293-2.293a.999.999 0 1 1 1.414 1.414L17.414 17z" fill="#ffffff" opacity="1" data-original="#000000" class=""></path></g></svg>