<svg xmlns="http://www.w3.org/2000/svg" version="1.1" xmlns:xlink="http://www.w3.org/1999/xlink" width="512" height="512" x="0" y="0" viewBox="0 0 16 16" style="enable-background:new 0 0 512 512" xml:space="preserve" class=""><g><path d="m14.794 7.166-1.122-3.74A1.988 1.988 0 0 0 11.756 2H11V1a1 1 0 0 0-1-1H6a1 1 0 0 0-1 1v1h-.756c-.89 0-1.66.573-1.916 1.426l-1.122 3.74A2.001 2.001 0 0 0 0 9v4a1 1 0 0 0 1 1v1a1 1 0 0 0 1 1h1a1 1 0 0 0 1-1v-1h8v1a1 1 0 0 0 1 1h1a1 1 0 0 0 1-1v-1a1 1 0 0 0 1-1V9c0-.82-.497-1.526-1.206-1.834zM4.244 4h7.512l.9 3H3.344l.9-3zM4 11.5a1 1 0 1 1 0-2 1 1 0 0 1 0 2zm8 0a1 1 0 1 1 0-2 1 1 0 0 1 0 2z" fill="#ffffff" opacity="1" data-original="#000000" class=""></path></g></svg>