<svg width="18" height="18" viewBox="0 0 18 18" fill="none" xmlns="http://www.w3.org/2000/svg">
<path fill-rule="evenodd" clip-rule="evenodd" d="M8.58329 1.29167C4.55622 1.29167 1.29163 4.55626 1.29163 8.58333C1.29163 12.6104 4.55622 15.875 8.58329 15.875C12.6104 15.875 15.875 12.6104 15.875 8.58333C15.875 4.55626 12.6104 1.29167 8.58329 1.29167ZM0.041626 8.58333C0.041626 3.8659 3.86586 0.0416679 8.58329 0.0416679C13.3007 0.0416679 17.125 3.8659 17.125 8.58333C17.125 10.7171 16.3426 12.6681 15.049 14.1652L17.7752 16.8914C18.0193 17.1355 18.0193 17.5312 17.7752 17.7753C17.5312 18.0194 17.1354 18.0194 16.8913 17.7753L14.1651 15.0491C12.6681 16.3426 10.7171 17.125 8.58329 17.125C3.86586 17.125 0.041626 13.3008 0.041626 8.58333Z" fill="#969AA6"/>
</svg>
