<svg xmlns="http://www.w3.org/2000/svg" version="1.1" xmlns:xlink="http://www.w3.org/1999/xlink" width="512" height="512" x="0" y="0" viewBox="0 0 24 24" style="enable-background:new 0 0 512 512" xml:space="preserve" class=""><g><path fill="#ffffff" fill-rule="evenodd" d="M3 7a1 1 0 0 1 1-1h11a1 1 0 1 1 0 2H4a1 1 0 0 1-1-1zm0 5a1 1 0 0 1 1-1h11a1 1 0 1 1 0 2H4a1 1 0 0 1-1-1zm17.707 1.293a1 1 0 0 1 0 1.414l-4 4a1 1 0 0 1-1.414 0l-2-2a1 1 0 0 1 1.414-1.414L16 16.586l3.293-3.293a1 1 0 0 1 1.414 0zM3 17a1 1 0 0 1 1-1h7a1 1 0 1 1 0 2H4a1 1 0 0 1-1-1z" clip-rule="evenodd" opacity="1" data-original="#000000" class=""></path></g></svg>