<svg width="24" height="24" viewBox="0 0 24 24" fill="none" xmlns="http://www.w3.org/2000/svg">
<path fill-rule="evenodd" clip-rule="evenodd" d="M20.3457 6.92971H20.6746C20.7551 6.92971 20.8323 6.9617 20.8892 7.01863C20.9462 7.07556 20.9782 7.15278 20.9782 7.2333V10.7245C20.9782 10.805 20.9462 10.8822 20.8892 10.9392C20.8323 10.9961 20.7551 11.0281 20.6746 11.0281H19.5614C19.4809 11.0281 19.4037 10.9961 19.3468 10.9392C19.2898 10.8822 19.2578 10.805 19.2578 10.7245V7.2333C19.2578 7.15278 19.2898 7.07556 19.3468 7.01863C19.4037 6.9617 19.4809 6.92971 19.5614 6.92971H19.7807C19.6997 6.63506 19.5467 6.36518 19.3354 6.14436C19.1242 5.92355 18.8613 5.75875 18.5706 5.66478V11.6516C18.2217 11.5363 17.8558 11.4583 17.4776 11.4225L17.4869 5.66478C17.4869 5.58874 17.4567 5.51581 17.403 5.46204C17.3492 5.40827 17.2763 5.37807 17.2002 5.37807H5.78214C5.7061 5.37807 5.63317 5.40827 5.5794 5.46204C5.52563 5.51581 5.49542 5.58874 5.49542 5.66478V13.4399H12.97C12.3602 14.2686 12 15.2922 12 16.4C12 17.0376 12.1193 17.6473 12.3369 18.208H7.61629V19.4223C7.61629 19.4989 7.60108 19.5747 7.57152 19.6453C7.54197 19.7159 7.49866 19.78 7.44412 19.8338C7.38959 19.8875 7.32491 19.9299 7.25385 19.9584C7.18279 19.9869 7.10676 20.0011 7.0302 19.9999H4.98523C4.83203 19.9999 4.6851 19.9391 4.57677 19.8307C4.46844 19.7224 4.40758 19.5755 4.40758 19.4223V5.63948C4.11384 5.73577 3.84904 5.90442 3.63757 6.12989C3.4261 6.35536 3.27475 6.63041 3.19747 6.92971H3.41672C3.49724 6.92971 3.57445 6.9617 3.63139 7.01863C3.68832 7.07556 3.7203 7.15278 3.7203 7.2333V10.7245C3.7203 10.805 3.68832 10.8822 3.63139 10.9392C3.57445 10.9961 3.49724 11.0281 3.41672 11.0281H2.30358C2.22307 11.0281 2.14585 10.9961 2.08892 10.9392C2.03198 10.8822 2 10.805 2 10.7245V7.2333C2 7.15278 2.03198 7.07556 2.08892 7.01863C2.14585 6.9617 2.22307 6.92971 2.30358 6.92971H2.63668C2.72594 6.48478 2.94042 6.0746 3.2549 5.74743C3.56937 5.42025 3.97074 5.18971 4.4118 5.08292V4.37456C4.4118 4.01073 4.55604 3.66174 4.8129 3.40409C5.06977 3.14643 5.41831 3.00112 5.78214 3H17.2044C17.3848 3 17.5633 3.03558 17.7298 3.10471C17.8964 3.17384 18.0476 3.27516 18.1749 3.40285C18.3022 3.53055 18.4031 3.68211 18.4717 3.84885C18.5403 4.0156 18.5753 4.19425 18.5748 4.37456V5.08292C19.0151 5.19041 19.4155 5.42127 19.7292 5.74839C20.0429 6.07551 20.2568 6.48532 20.3457 6.92971ZM8.32362 16.1542C8.42855 16.0493 8.48798 15.9073 8.48909 15.7589V15.3879C8.48797 15.2399 8.4284 15.0983 8.32335 14.9941C8.21831 14.8898 8.0763 14.8313 7.9283 14.8313H6.38509C6.23748 14.8313 6.09591 14.8899 5.99153 14.9943C5.88716 15.0987 5.82852 15.2403 5.82852 15.3879V15.7589C5.82851 15.9069 5.88702 16.0489 5.99127 16.154C6.09553 16.259 6.23709 16.3186 6.38509 16.3197H7.9283C8.07669 16.3186 8.21869 16.2592 8.32362 16.1542Z" fill="#0A2D89"/>
<path d="M18.32 18.2799L18.88 17.7199L17.4 16.2399V14.3999H16.6V16.5599L18.32 18.2799ZM17 20.3999C16.4467 20.3999 15.9267 20.2949 15.44 20.0849C14.9533 19.8749 14.53 19.5899 14.17 19.2299C13.81 18.8699 13.525 18.4466 13.315 17.9599C13.105 17.4732 13 16.9532 13 16.3999C13 15.8466 13.105 15.3266 13.315 14.8399C13.525 14.3532 13.81 13.9299 14.17 13.5699C14.53 13.2099 14.9533 12.9249 15.44 12.7149C15.9267 12.5049 16.4467 12.3999 17 12.3999C17.5533 12.3999 18.0733 12.5049 18.56 12.7149C19.0467 12.9249 19.47 13.2099 19.83 13.5699C20.19 13.9299 20.475 14.3532 20.685 14.8399C20.895 15.3266 21 15.8466 21 16.3999C21 16.9532 20.895 17.4732 20.685 17.9599C20.475 18.4466 20.19 18.8699 19.83 19.2299C19.47 19.5899 19.0467 19.8749 18.56 20.0849C18.0733 20.2949 17.5533 20.3999 17 20.3999Z" fill="#0A2D89"/>
</svg>
