<svg xmlns="http://www.w3.org/2000/svg" version="1.1" xmlns:xlink="http://www.w3.org/1999/xlink" width="512" height="512" x="0" y="0" viewBox="0 0 32 32" style="enable-background:new 0 0 512 512" xml:space="preserve" class=""><g><path d="M25 18c-3.9 0-7 3.1-7 7s3.1 7 7 7 7-3.1 7-7-3.1-7-7-7zm3.8 6.8L25.3 26H25c-.2 0-.4-.1-.6-.2-.2-.2-.4-.5-.4-.8v-4c0-.6.4-1 1-1s1 .4 1 1v2.6l2.2-.7c.5-.2 1.1.1 1.3.6.1.5-.2 1.1-.7 1.3z" fill="#ffffff" opacity="1" data-original="#000000" class=""></path><path d="M16 25c0-5 4-9 9-9 1.1 0 2.1.2 3 .5V9.6l2 1V15c0 .6.4 1 1 1s1-.4 1-1v-5c0-.4-.2-.7-.6-.9L28 7.4V6c0-2.8-2.2-5-5-5H9C6.2 1 4 3.2 4 6v1.4L.6 9.1c-.4.2-.6.5-.6.9v5c0 .6.4 1 1 1s1-.4 1-1v-4.4l2-1V23c0 .9.4 1.7 1 2.2V27c0 1.7 1.3 3 3 3h2c1.7 0 3-1.3 3-3v-1h3.1c-.1-.3-.1-.7-.1-1zm-3-3.8c-.1.5-.5.8-1 .8h-.2l-4-1c-.5-.1-.9-.7-.7-1.2.1-.5.7-.9 1.2-.7l4 1c.5.1.8.6.7 1.1zm-7-6.9V6c0-1.7 1.3-3 3-3h14c1.7 0 3 1.3 3 3v8.3c-6.5 2.2-13.5 2.2-20 0z" fill="#ffffff" opacity="1" data-original="#000000" class=""></path></g></svg>