<svg width="27" height="10" viewBox="0 0 27 10" fill="none" xmlns="http://www.w3.org/2000/svg">
<path d="M19.6038 0.0542166C19.5052 -0.0110729 19.3746 -0.0110725 19.2761 0.0209332C19.1775 0.0862227 19.1122 0.184796 19.1122 0.315375V2.41229L0.633389 2.41357C0.436243 2.41357 0.305664 2.57744 0.305664 2.7413V6.9683C0.305664 7.13217 0.469527 7.29603 0.633389 7.29603H19.1122V9.39295C19.1122 9.52353 19.1775 9.6221 19.2761 9.68739C19.3093 9.72067 19.3746 9.72067 19.4399 9.72067C19.5052 9.72067 19.5705 9.68739 19.6371 9.65539L25.9943 5.10066C26.0929 5.03537 26.1249 4.93679 26.1249 4.83822C26.1249 4.73965 26.0916 4.64107 25.9943 4.57578L19.6038 0.0542166Z" fill="#00A3FF"/>
<path d="M5.48007 2.41357C5.28292 2.41357 5.15234 2.54415 5.15234 2.7413V6.9683C5.15234 7.16545 5.28292 7.29603 5.48007 7.29603C5.67722 7.29603 5.80779 7.16545 5.80779 6.9683V2.7413C5.80779 2.57744 5.67594 2.41357 5.48007 2.41357Z" fill="#00A3FF"/>
<path d="M2.858 2.41354C2.66085 2.41354 2.53027 2.54412 2.53027 2.74127V6.96827C2.53027 7.16542 2.66085 7.296 2.858 7.296C3.05515 7.296 3.18572 7.16542 3.18572 6.96827V2.74127C3.18572 2.57741 3.02186 2.41354 2.858 2.41354Z" fill="#00A3FF"/>
</svg>
