<svg width="28" height="10" viewBox="0 0 28 10" fill="none" xmlns="http://www.w3.org/2000/svg">
<path d="M20.6038 0.0542166C20.5052 -0.0110729 20.3746 -0.0110725 20.2761 0.0209332C20.1775 0.0862227 20.1122 0.184796 20.1122 0.315375V2.41229L9.13339 2.41357C8.93624 2.41357 8.80566 2.57744 8.80566 2.7413V6.9683C8.80566 7.13217 8.96953 7.29603 9.13339 7.29603H20.1122V9.39295C20.1122 9.52353 20.1775 9.6221 20.2761 9.68739C20.3093 9.72067 20.3746 9.72067 20.4399 9.72067C20.5052 9.72067 20.5705 9.68739 20.6371 9.65539L26.9943 5.10066C27.0929 5.03537 27.1249 4.93679 27.1249 4.83822C27.1249 4.73965 27.0916 4.64107 26.9943 4.57578L20.6038 0.0542166Z" fill="#00A3FF"/>
<path d="M6.47909 2.41356C6.28195 2.41356 6.15137 2.54414 6.15137 2.74128V6.96829C6.15137 7.16543 6.28195 7.29601 6.47909 7.29601C6.67624 7.29601 6.80682 7.16543 6.80682 6.96829V2.74128C6.80682 2.57742 6.67496 2.41356 6.47909 2.41356Z" fill="#00A3FF"/>
<path d="M3.858 2.41356C3.66085 2.41356 3.53027 2.54414 3.53027 2.74128V6.96829C3.53027 7.16543 3.66085 7.29601 3.858 7.29601C4.05515 7.29601 4.18572 7.16543 4.18572 6.96829V2.74128C4.18572 2.57742 4.02186 2.41356 3.858 2.41356Z" fill="#00A3FF"/>
<path d="M1.20273 2.41356C1.00558 2.41356 0.875 2.54414 0.875 2.74128V6.96829C0.875 7.16543 1.00558 7.29601 1.20273 7.29601C1.39987 7.29601 1.53045 7.16543 1.53045 6.96829V2.74128C1.53045 2.57742 1.39987 2.41356 1.20273 2.41356Z" fill="#00A3FF"/>
</svg>
